<svg width="261" height="120" viewBox="0 0 261 120" fill="none" xmlns="http://www.w3.org/2000/svg">
<path d="M79.048 54.432C76.48 54.432 74.152 53.88 72.064 52.776C70 51.648 68.368 50.1 67.168 48.132C65.992 46.14 65.404 43.896 65.404 41.4C65.404 38.904 65.992 36.672 67.168 34.704C68.368 32.712 70 31.164 72.064 30.06C74.152 28.932 76.492 28.368 79.084 28.368C81.268 28.368 83.236 28.752 84.988 29.52C86.764 30.288 88.252 31.392 89.452 32.832L85.708 36.288C84.004 34.32 81.892 33.336 79.372 33.336C77.812 33.336 76.42 33.684 75.196 34.38C73.972 35.052 73.012 36 72.316 37.224C71.644 38.448 71.308 39.84 71.308 41.4C71.308 42.96 71.644 44.352 72.316 45.576C73.012 46.8 73.972 47.76 75.196 48.456C76.42 49.128 77.812 49.464 79.372 49.464C81.892 49.464 84.004 48.468 85.708 46.476L89.452 49.932C88.252 51.396 86.764 52.512 84.988 53.28C83.212 54.048 81.232 54.432 79.048 54.432ZM118.494 48.6H106.794L104.562 54H98.5862L109.818 28.8H115.578L126.846 54H120.726L118.494 48.6ZM116.658 44.172L112.662 34.524L108.666 44.172H116.658ZM154.517 54L149.657 46.98H149.369H144.293V54H138.461V28.8H149.369C151.601 28.8 153.533 29.172 155.165 29.916C156.821 30.66 158.093 31.716 158.981 33.084C159.869 34.452 160.313 36.072 160.313 37.944C160.313 39.816 159.857 41.436 158.945 42.804C158.057 44.148 156.785 45.18 155.129 45.9L160.781 54H154.517ZM154.409 37.944C154.409 36.528 153.953 35.448 153.041 34.704C152.129 33.936 150.797 33.552 149.045 33.552H144.293V42.336H149.045C150.797 42.336 152.129 41.952 153.041 41.184C153.953 40.416 154.409 39.336 154.409 37.944ZM173.933 28.8H179.765V49.248H192.401V54H173.933V28.8ZM216.442 54.432C213.826 54.432 211.462 53.868 209.35 52.74C207.262 51.612 205.618 50.064 204.418 48.096C203.242 46.104 202.654 43.872 202.654 41.4C202.654 38.928 203.242 36.708 204.418 34.74C205.618 32.748 207.262 31.188 209.35 30.06C211.462 28.932 213.826 28.368 216.442 28.368C219.058 28.368 221.41 28.932 223.498 30.06C225.586 31.188 227.23 32.748 228.43 34.74C229.63 36.708 230.23 38.928 230.23 41.4C230.23 43.872 229.63 46.104 228.43 48.096C227.23 50.064 225.586 51.612 223.498 52.74C221.41 53.868 219.058 54.432 216.442 54.432ZM216.442 49.464C217.93 49.464 219.274 49.128 220.474 48.456C221.674 47.76 222.61 46.8 223.282 45.576C223.978 44.352 224.326 42.96 224.326 41.4C224.326 39.84 223.978 38.448 223.282 37.224C222.61 36 221.674 35.052 220.474 34.38C219.274 33.684 217.93 33.336 216.442 33.336C214.954 33.336 213.61 33.684 212.41 34.38C211.21 35.052 210.262 36 209.566 37.224C208.894 38.448 208.558 39.84 208.558 41.4C208.558 42.96 208.894 44.352 209.566 45.576C210.262 46.8 211.21 47.76 212.41 48.456C213.61 49.128 214.954 49.464 216.442 49.464ZM83.368 81.004C85.168 81.34 86.536 82.048 87.472 83.128C88.432 84.208 88.912 85.612 88.912 87.34C88.912 89.476 88.132 91.12 86.572 92.272C85.012 93.424 82.696 94 79.624 94H68.392V68.8H78.904C81.64 68.8 83.764 69.364 85.276 70.492C86.812 71.596 87.58 73.18 87.58 75.244C87.58 76.684 87.196 77.896 86.428 78.88C85.684 79.864 84.664 80.572 83.368 81.004ZM70.228 70.384V80.428H78.832C81.04 80.428 82.732 80.008 83.908 79.168C85.108 78.304 85.708 77.044 85.708 75.388C85.708 73.756 85.108 72.52 83.908 71.68C82.732 70.816 81.04 70.384 78.832 70.384H70.228ZM79.624 92.416C82.072 92.416 83.92 91.996 85.168 91.156C86.44 90.292 87.076 88.972 87.076 87.196C87.076 85.42 86.44 84.112 85.168 83.272C83.92 82.432 82.072 82.012 79.624 82.012H70.228V92.416H79.624ZM114.65 86.908H100.034L96.8303 94H94.8503L106.442 68.8H108.278L119.87 94H117.89L114.65 86.908ZM113.966 85.36L107.342 70.816L100.754 85.36H113.966ZM145.694 81.508H147.458V90.94C146.354 91.996 145.01 92.8 143.426 93.352C141.866 93.904 140.21 94.18 138.458 94.18C135.962 94.18 133.706 93.628 131.69 92.524C129.698 91.42 128.126 89.896 126.974 87.952C125.846 86.008 125.282 83.824 125.282 81.4C125.282 78.976 125.846 76.792 126.974 74.848C128.126 72.904 129.698 71.38 131.69 70.276C133.706 69.172 135.974 68.62 138.494 68.62C140.342 68.62 142.034 68.92 143.57 69.52C145.13 70.096 146.462 70.948 147.566 72.076L146.414 73.3C145.358 72.244 144.17 71.488 142.85 71.032C141.554 70.552 140.114 70.312 138.53 70.312C136.37 70.312 134.414 70.792 132.662 71.752C130.934 72.712 129.578 74.044 128.594 75.748C127.61 77.428 127.118 79.312 127.118 81.4C127.118 83.464 127.61 85.348 128.594 87.052C129.602 88.732 130.97 90.064 132.698 91.048C134.426 92.008 136.37 92.488 138.53 92.488C141.41 92.488 143.798 91.72 145.694 90.184V81.508ZM179.657 68.8V94H178.145L160.973 72.112V94H159.137V68.8H160.685L177.821 90.688V68.8H179.657ZM202.75 94.18C200.278 94.18 198.046 93.628 196.054 92.524C194.062 91.396 192.49 89.86 191.338 87.916C190.21 85.972 189.646 83.8 189.646 81.4C189.646 79 190.21 76.828 191.338 74.884C192.49 72.94 194.062 71.416 196.054 70.312C198.046 69.184 200.278 68.62 202.75 68.62C205.222 68.62 207.454 69.172 209.446 70.276C211.438 71.38 212.998 72.904 214.126 74.848C215.278 76.792 215.854 78.976 215.854 81.4C215.854 83.824 215.278 86.008 214.126 87.952C212.998 89.896 211.438 91.42 209.446 92.524C207.454 93.628 205.222 94.18 202.75 94.18ZM202.75 92.488C204.862 92.488 206.77 92.008 208.474 91.048C210.178 90.088 211.522 88.768 212.506 87.088C213.49 85.384 213.982 83.488 213.982 81.4C213.982 79.312 213.49 77.428 212.506 75.748C211.522 74.044 210.178 72.712 208.474 71.752C206.77 70.792 204.862 70.312 202.75 70.312C200.638 70.312 198.718 70.792 196.99 71.752C195.286 72.712 193.942 74.044 192.958 75.748C191.974 77.428 191.482 79.312 191.482 81.4C191.482 83.488 191.974 85.384 192.958 87.088C193.942 88.768 195.286 90.088 196.99 91.048C198.718 92.008 200.638 92.488 202.75 92.488ZM225.822 68.8H227.658V92.344H242.166V94H225.822V68.8ZM250.48 68.8H252.316V94H250.48V68.8Z" fill="#F1F1F1"/>
<path d="M12.04 99.2107L0 78.3796L0.604393 77.2891C0.93681 76.6893 3.0964 72.9431 5.40348 68.9642C7.71056 64.9853 9.82673 61.3229 10.1061 60.8256L10.614 59.9213L5.33646 50.8004C2.43381 45.7839 0.0589178 41.6178 0.0589178 41.5424C0.0589178 41.3625 23.7936 0.308144 24.0727 0.00541567C24.2413 -0.177473 26.8622 4.22286 36.3742 20.6582L48.4615 41.5434L43.1835 50.6419C40.2806 55.6461 37.9029 59.8218 37.8997 59.9213C37.8966 60.0208 40.2706 64.2051 43.1752 69.2197L48.4565 78.3373L47.9283 79.2574C41.122 91.115 24.3375 119.969 24.2285 120C24.1468 120.023 18.662 110.668 12.04 99.2107ZM30.4081 99.3641C32.3618 95.9906 33.9603 93.2031 33.9603 93.1697C33.9603 93.1363 32.3287 93.1089 30.3345 93.1089H26.7087V99.3787C26.7087 102.827 26.7418 105.615 26.7823 105.573C26.8227 105.532 28.4544 102.738 30.4081 99.3641ZM21.6325 99.2581V93.1089H18.0974C16.153 93.1089 14.5622 93.164 14.5622 93.2312C14.5622 93.3717 21.4983 105.407 21.5792 105.407C21.6085 105.407 21.6325 102.64 21.6325 99.2581ZM21.6325 84.4277V80.8105H14.4568H7.28098L7.63435 81.3983C7.8287 81.7216 8.33726 82.5965 8.7645 83.3425C9.19173 84.0886 9.98231 85.4518 10.5213 86.3719L11.5014 88.0449H16.567H21.6325V84.4277ZM38.9947 84.5266C40.1145 82.5916 41.0307 80.9629 41.0307 80.9074C41.0307 80.8518 37.8286 80.8276 33.915 80.8536L26.7993 80.901L26.7502 84.4729L26.701 88.0449H31.8298H36.9586L38.9947 84.5266ZM19.6383 75.6315C19.6383 75.5683 18.28 73.1669 16.6197 70.2949C14.01 65.7806 13.5716 65.1162 13.3833 65.391C13.0093 65.9366 7.49185 75.5413 7.49185 75.6466C7.49185 75.7015 10.2248 75.7465 13.5651 75.7465C16.9054 75.7465 19.6383 75.6947 19.6383 75.6315V75.6315ZM40.7228 75.1587C40.5337 74.8354 39.1691 72.4752 37.6903 69.9137C36.2114 67.3523 34.9409 65.2566 34.8668 65.2566C34.7927 65.2566 33.5221 67.3523 32.0433 69.9137C30.5645 72.4752 29.1999 74.8354 29.0108 75.1587L28.6671 75.7465H34.8668H41.0665L40.7228 75.1587ZM28.073 66.6131C30.1454 63.0321 31.8386 60.0208 31.8358 59.9213C31.833 59.8218 30.1177 56.7904 28.0239 53.1849L24.2171 46.6293L20.5361 53.004C18.5116 56.5101 16.7779 59.5059 16.6834 59.6613C16.5531 59.8757 17.4193 61.5129 20.2718 66.4435C22.3399 70.0183 24.0713 73.0096 24.1194 73.0908C24.1675 73.172 24.229 73.2127 24.256 73.1812C24.283 73.1498 26.0007 70.1941 28.073 66.6131V66.6131ZM14.4356 53.3652C14.8819 52.5943 16.2718 50.1933 17.5241 48.0298L19.8011 44.0961H13.5738H7.34657L10.429 49.4315C12.1243 52.3659 13.5367 54.7668 13.5677 54.7668C13.5987 54.7668 13.9892 54.1361 14.4356 53.3652V53.3652ZM37.9963 49.4717L41.0352 44.1866L37.951 44.1371C36.2547 44.1099 33.4784 44.1099 31.7814 44.1371L28.6961 44.1866L31.7361 49.4702C33.4081 52.3762 34.8169 54.7545 34.8668 54.7553C34.9166 54.7558 36.3249 52.3785 37.9963 49.4717ZM21.6325 35.4149V31.7977H16.573H11.5135L9.65476 35.008C8.63247 36.7736 7.67744 38.4013 7.53246 38.6251L7.26886 39.0321H14.4507H21.6325V35.4149ZM41.0005 38.8776C40.9672 38.7927 40.0426 37.166 38.9458 35.2629L36.9516 31.8027L31.8302 31.8003L26.7087 31.7979V35.415V39.0322H33.8848C37.8316 39.0322 41.0337 38.9627 41.0005 38.8778V38.8776ZM21.6325 20.5543C21.6325 17.1557 21.6024 14.4089 21.5657 14.4503C21.4338 14.5989 14.7097 26.2494 14.6176 26.4889C14.5404 26.6895 15.1641 26.7337 18.078 26.7337H21.6325V20.5543ZM33.7735 26.3616C33.1348 25.1711 27.0148 14.6774 26.8759 14.5347C26.7737 14.4297 26.7087 16.7675 26.7087 20.5483V26.7337H30.3409C33.9507 26.7337 33.9719 26.7313 33.7735 26.3616V26.3616Z" fill="#F1F1F1"/>
</svg>
