<svg width="190" height="100" viewBox="0 0 190 120" fill="none" xmlns="http://www.w3.org/2000/svg">
<rect width="190" height="120" />
<path d="M63.032 50.288C61.32 50.288 59.768 49.92 58.376 49.184C57 48.432 55.912 47.4 55.112 46.088C54.328 44.76 53.936 43.264 53.936 41.6C53.936 39.936 54.328 38.448 55.112 37.136C55.912 35.808 57 34.776 58.376 34.04C59.768 33.288 61.328 32.912 63.056 32.912C64.512 32.912 65.824 33.168 66.992 33.68C68.176 34.192 69.168 34.928 69.968 35.888L67.472 38.192C66.336 36.88 64.928 36.224 63.248 36.224C62.208 36.224 61.28 36.456 60.464 36.92C59.648 37.368 59.008 38 58.544 38.816C58.096 39.632 57.872 40.56 57.872 41.6C57.872 42.64 58.096 43.568 58.544 44.384C59.008 45.2 59.648 45.84 60.464 46.304C61.28 46.752 62.208 46.976 63.248 46.976C64.928 46.976 66.336 46.312 67.472 44.984L69.968 47.288C69.168 48.264 68.176 49.008 66.992 49.52C65.808 50.032 64.488 50.288 63.032 50.288ZM89.3294 46.4H81.5294L80.0414 50H76.0574L83.5454 33.2H87.3854L94.8974 50H90.8174L89.3294 46.4ZM88.1054 43.448L85.4414 37.016L82.7774 43.448H88.1054ZM113.344 50L110.104 45.32H109.912H106.528V50H102.64V33.2H109.912C111.4 33.2 112.688 33.448 113.776 33.944C114.88 34.44 115.728 35.144 116.32 36.056C116.912 36.968 117.208 38.048 117.208 39.296C117.208 40.544 116.904 41.624 116.296 42.536C115.704 43.432 114.856 44.12 113.752 44.6L117.52 50H113.344ZM113.272 39.296C113.272 38.352 112.968 37.632 112.36 37.136C111.752 36.624 110.864 36.368 109.696 36.368H106.528V42.224H109.696C110.864 42.224 111.752 41.968 112.36 41.456C112.968 40.944 113.272 40.224 113.272 39.296ZM126.289 33.2H130.177V46.832H138.601V50H126.289V33.2ZM154.628 50.288C152.884 50.288 151.308 49.912 149.9 49.16C148.508 48.408 147.412 47.376 146.612 46.064C145.828 44.736 145.436 43.248 145.436 41.6C145.436 39.952 145.828 38.472 146.612 37.16C147.412 35.832 148.508 34.792 149.9 34.04C151.308 33.288 152.884 32.912 154.628 32.912C156.372 32.912 157.94 33.288 159.332 34.04C160.724 34.792 161.82 35.832 162.62 37.16C163.42 38.472 163.82 39.952 163.82 41.6C163.82 43.248 163.42 44.736 162.62 46.064C161.82 47.376 160.724 48.408 159.332 49.16C157.94 49.912 156.372 50.288 154.628 50.288ZM154.628 46.976C155.62 46.976 156.516 46.752 157.316 46.304C158.116 45.84 158.74 45.2 159.188 44.384C159.652 43.568 159.884 42.64 159.884 41.6C159.884 40.56 159.652 39.632 159.188 38.816C158.74 38 158.116 37.368 157.316 36.92C156.516 36.456 155.62 36.224 154.628 36.224C153.636 36.224 152.74 36.456 151.94 36.92C151.14 37.368 150.508 38 150.044 38.816C149.596 39.632 149.372 40.56 149.372 41.6C149.372 42.64 149.596 43.568 150.044 44.384C150.508 45.2 151.14 45.84 151.94 46.304C152.74 46.752 153.636 46.976 154.628 46.976ZM65.912 77.336C67.112 77.56 68.024 78.032 68.648 78.752C69.288 79.472 69.608 80.408 69.608 81.56C69.608 82.984 69.088 84.08 68.048 84.848C67.008 85.616 65.464 86 63.416 86H55.928V69.2H62.936C64.76 69.2 66.176 69.576 67.184 70.328C68.208 71.064 68.72 72.12 68.72 73.496C68.72 74.456 68.464 75.264 67.952 75.92C67.456 76.576 66.776 77.048 65.912 77.336ZM57.152 70.256V76.952H62.888C64.36 76.952 65.488 76.672 66.272 76.112C67.072 75.536 67.472 74.696 67.472 73.592C67.472 72.504 67.072 71.68 66.272 71.12C65.488 70.544 64.36 70.256 62.888 70.256H57.152ZM63.416 84.944C65.048 84.944 66.28 84.664 67.112 84.104C67.96 83.528 68.384 82.648 68.384 81.464C68.384 80.28 67.96 79.408 67.112 78.848C66.28 78.288 65.048 78.008 63.416 78.008H57.152V84.944H63.416ZM86.7669 81.272H77.0229L74.8869 86H73.5669L81.2949 69.2H82.5189L90.2469 86H88.9269L86.7669 81.272ZM86.3109 80.24L81.8949 70.544L77.5029 80.24H86.3109ZM107.462 77.672H108.638V83.96C107.902 84.664 107.006 85.2 105.95 85.568C104.91 85.936 103.806 86.12 102.638 86.12C100.974 86.12 99.4704 85.752 98.1264 85.016C96.7984 84.28 95.7504 83.264 94.9824 81.968C94.2304 80.672 93.8544 79.216 93.8544 77.6C93.8544 75.984 94.2304 74.528 94.9824 73.232C95.7504 71.936 96.7984 70.92 98.1264 70.184C99.4704 69.448 100.982 69.08 102.662 69.08C103.894 69.08 105.022 69.28 106.046 69.68C107.086 70.064 107.974 70.632 108.71 71.384L107.942 72.2C107.238 71.496 106.446 70.992 105.566 70.688C104.702 70.368 103.742 70.208 102.686 70.208C101.246 70.208 99.9424 70.528 98.7744 71.168C97.6224 71.808 96.7184 72.696 96.0624 73.832C95.4064 74.952 95.0784 76.208 95.0784 77.6C95.0784 78.976 95.4064 80.232 96.0624 81.368C96.7344 82.488 97.6464 83.376 98.7984 84.032C99.9504 84.672 101.246 84.992 102.686 84.992C104.606 84.992 106.198 84.48 107.462 83.456V77.672ZM130.105 69.2V86H129.097L117.649 71.408V86H116.425V69.2H117.457L128.881 83.792V69.2H130.105ZM145.5 86.12C143.852 86.12 142.364 85.752 141.036 85.016C139.708 84.264 138.66 83.24 137.892 81.944C137.14 80.648 136.764 79.2 136.764 77.6C136.764 76 137.14 74.552 137.892 73.256C138.66 71.96 139.708 70.944 141.036 70.208C142.364 69.456 143.852 69.08 145.5 69.08C147.148 69.08 148.636 69.448 149.964 70.184C151.292 70.92 152.332 71.936 153.084 73.232C153.852 74.528 154.236 75.984 154.236 77.6C154.236 79.216 153.852 80.672 153.084 81.968C152.332 83.264 151.292 84.28 149.964 85.016C148.636 85.752 147.148 86.12 145.5 86.12ZM145.5 84.992C146.908 84.992 148.18 84.672 149.316 84.032C150.452 83.392 151.348 82.512 152.004 81.392C152.66 80.256 152.988 78.992 152.988 77.6C152.988 76.208 152.66 74.952 152.004 73.832C151.348 72.696 150.452 71.808 149.316 71.168C148.18 70.528 146.908 70.208 145.5 70.208C144.092 70.208 142.812 70.528 141.66 71.168C140.524 71.808 139.628 72.696 138.972 73.832C138.316 74.952 137.988 76.208 137.988 77.6C137.988 78.992 138.316 80.256 138.972 81.392C139.628 82.512 140.524 83.392 141.66 84.032C142.812 84.672 144.092 84.992 145.5 84.992ZM160.881 69.2H162.105V84.896H171.777V86H160.881V69.2ZM177.32 69.2H178.544V86H177.32V69.2Z" fill="#F1F1F1"/>
<path d="M12.04 99.2107L0 78.3796L0.604393 77.2891C0.93681 76.6893 3.0964 72.9431 5.40348 68.9642C7.71056 64.9853 9.82673 61.3229 10.1061 60.8256L10.614 59.9213L5.33646 50.8004C2.43381 45.7839 0.0589178 41.6178 0.0589178 41.5424C0.0589178 41.3625 23.7936 0.308144 24.0727 0.00541567C24.2413 -0.177473 26.8622 4.22286 36.3742 20.6582L48.4615 41.5434L43.1835 50.6419C40.2806 55.6461 37.9029 59.8218 37.8997 59.9213C37.8966 60.0208 40.2706 64.2051 43.1752 69.2197L48.4565 78.3373L47.9283 79.2574C41.122 91.115 24.3375 119.969 24.2285 120C24.1468 120.023 18.662 110.668 12.04 99.2107ZM30.4081 99.3641C32.3618 95.9906 33.9603 93.2031 33.9603 93.1697C33.9603 93.1363 32.3287 93.1089 30.3345 93.1089H26.7087V99.3787C26.7087 102.827 26.7418 105.615 26.7823 105.573C26.8227 105.532 28.4544 102.738 30.4081 99.3641ZM21.6325 99.2581V93.1089H18.0974C16.153 93.1089 14.5622 93.164 14.5622 93.2312C14.5622 93.3717 21.4983 105.407 21.5792 105.407C21.6085 105.407 21.6325 102.64 21.6325 99.2581ZM21.6325 84.4277V80.8105H14.4568H7.28098L7.63435 81.3983C7.8287 81.7216 8.33726 82.5965 8.7645 83.3425C9.19173 84.0886 9.98231 85.4518 10.5213 86.3719L11.5014 88.0449H16.567H21.6325V84.4277ZM38.9947 84.5266C40.1145 82.5916 41.0307 80.9629 41.0307 80.9074C41.0307 80.8518 37.8286 80.8276 33.915 80.8536L26.7993 80.901L26.7502 84.4729L26.701 88.0449H31.8298H36.9586L38.9947 84.5266ZM19.6383 75.6315C19.6383 75.5683 18.28 73.1669 16.6197 70.2949C14.01 65.7806 13.5716 65.1162 13.3833 65.391C13.0093 65.9366 7.49185 75.5413 7.49185 75.6466C7.49185 75.7015 10.2248 75.7465 13.5651 75.7465C16.9054 75.7465 19.6383 75.6947 19.6383 75.6315V75.6315ZM40.7228 75.1587C40.5337 74.8354 39.1691 72.4752 37.6903 69.9137C36.2114 67.3523 34.9409 65.2566 34.8668 65.2566C34.7927 65.2566 33.5221 67.3523 32.0433 69.9137C30.5645 72.4752 29.1999 74.8354 29.0108 75.1587L28.6671 75.7465H34.8668H41.0665L40.7228 75.1587ZM28.073 66.6131C30.1454 63.0321 31.8386 60.0208 31.8358 59.9213C31.833 59.8218 30.1177 56.7904 28.0239 53.1849L24.2171 46.6293L20.5361 53.004C18.5116 56.5101 16.7779 59.5059 16.6834 59.6613C16.5531 59.8757 17.4193 61.5129 20.2718 66.4435C22.3399 70.0183 24.0713 73.0096 24.1194 73.0908C24.1675 73.172 24.229 73.2127 24.256 73.1812C24.283 73.1498 26.0007 70.1941 28.073 66.6131V66.6131ZM14.4356 53.3652C14.8819 52.5943 16.2718 50.1933 17.5241 48.0298L19.8011 44.0961H13.5738H7.34657L10.429 49.4315C12.1243 52.3659 13.5367 54.7668 13.5677 54.7668C13.5987 54.7668 13.9892 54.1361 14.4356 53.3652V53.3652ZM37.9963 49.4717L41.0352 44.1866L37.951 44.1371C36.2547 44.1099 33.4784 44.1099 31.7814 44.1371L28.6961 44.1866L31.7361 49.4702C33.4081 52.3762 34.8169 54.7545 34.8668 54.7553C34.9166 54.7558 36.3249 52.3785 37.9963 49.4717ZM21.6325 35.4149V31.7977H16.573H11.5135L9.65476 35.008C8.63247 36.7736 7.67744 38.4013 7.53246 38.6251L7.26886 39.0321H14.4507H21.6325V35.4149ZM41.0005 38.8776C40.9672 38.7927 40.0426 37.166 38.9458 35.2629L36.9516 31.8027L31.8302 31.8003L26.7087 31.7979V35.415V39.0322H33.8848C37.8316 39.0322 41.0337 38.9627 41.0005 38.8778V38.8776ZM21.6325 20.5543C21.6325 17.1557 21.6024 14.4089 21.5657 14.4503C21.4338 14.5989 14.7097 26.2494 14.6176 26.4889C14.5404 26.6895 15.1641 26.7337 18.078 26.7337H21.6325V20.5543ZM33.7735 26.3616C33.1348 25.1711 27.0148 14.6774 26.8759 14.5347C26.7737 14.4297 26.7087 16.7675 26.7087 20.5483V26.7337H30.3409C33.9507 26.7337 33.9719 26.7313 33.7735 26.3616V26.3616Z" fill="#F1F1F1"/>
</svg>
