<svg width="387" height="961" viewBox="0 0 387 961" fill="none" xmlns="http://www.w3.org/2000/svg">
<path d="M96.1479 794.359L0 627.569L4.82651 618.838C7.4811 614.035 24.727 584.04 43.1506 552.182C61.5743 520.324 78.4735 491 80.7043 487.018L84.7604 479.777L42.6154 406.748C19.4357 366.582 0.4705 333.225 0.4705 332.621C0.4705 331.181 190.009 2.46725 192.238 0.0433621C193.584 -1.42099 214.514 33.8116 290.474 165.406L387 332.63L344.851 405.479C321.669 445.547 302.682 478.981 302.657 479.777C302.631 480.574 321.589 514.076 344.785 554.228L386.96 627.23L382.742 634.597C328.388 729.538 194.352 960.569 193.482 960.815C192.83 960.999 149.029 886.094 96.1479 794.359ZM242.83 795.587C258.432 768.576 271.198 746.258 271.198 745.99C271.198 745.723 258.168 745.504 242.243 745.504H213.288V795.704C213.288 823.315 213.552 845.634 213.876 845.302C214.199 844.97 227.228 822.598 242.83 795.587ZM172.751 794.739V745.504H144.52C128.993 745.504 116.29 745.944 116.29 746.483C116.29 747.608 171.679 843.974 172.325 843.974C172.56 843.974 172.751 821.819 172.751 794.739ZM172.751 675.995V647.033H115.448H58.1439L60.9657 651.739C62.5177 654.328 66.579 661.333 69.9908 667.306C73.4025 673.28 79.7159 684.195 84.0204 691.562L91.8469 704.957H132.299H172.751V675.995ZM311.4 676.787C320.343 661.294 327.659 648.253 327.659 647.808C327.659 647.363 302.089 647.17 270.836 647.378L214.012 647.757L213.619 676.357L213.227 704.957H254.184H295.141L311.4 676.787ZM156.826 605.566C156.826 605.06 145.979 585.832 132.72 562.837C111.88 526.691 108.379 521.372 106.875 523.572C103.889 527.941 59.8278 604.843 59.8278 605.687C59.8278 606.126 81.6524 606.486 108.327 606.486C135.002 606.486 156.826 606.072 156.826 605.566V605.566ZM325.2 601.78C323.691 599.191 312.793 580.293 300.984 559.785C289.174 539.276 279.028 522.496 278.436 522.496C277.845 522.496 267.698 539.276 255.889 559.785C244.079 580.293 233.182 599.191 231.672 601.78L228.927 606.486H278.436H327.945L325.2 601.78ZM224.183 533.357C240.732 504.684 254.254 480.574 254.232 479.777C254.209 478.981 240.511 454.709 223.791 425.84L193.391 373.351L163.996 424.392C147.828 452.465 133.983 476.451 133.229 477.696C132.188 479.412 139.106 492.521 161.885 531.999C178.4 560.622 192.226 584.573 192.611 585.223C192.995 585.873 193.486 586.199 193.702 585.947C193.917 585.695 207.634 562.029 224.183 533.357V533.357ZM115.278 427.284C118.843 421.111 129.942 401.888 139.943 384.565L158.126 353.068H108.397H58.6676L83.2829 395.787C96.8213 419.283 108.101 438.506 108.348 438.506C108.595 438.506 111.714 433.456 115.278 427.284V427.284ZM303.428 396.109L327.696 353.792L303.066 353.396C289.52 353.178 267.349 353.178 253.797 353.396L229.159 353.792L253.435 396.098C266.788 419.366 278.038 438.408 278.436 438.414C278.834 438.418 290.081 419.384 303.428 396.109ZM172.751 283.56V254.598H132.347H91.9433L77.1002 280.302C68.9365 294.439 61.3098 307.471 60.152 309.263L58.047 312.522H115.399H172.751V283.56ZM327.418 311.285C327.153 310.605 319.769 297.581 311.01 282.343L295.085 254.637L254.187 254.618L213.288 254.599V283.561V312.523H270.594C302.113 312.523 327.683 311.966 327.418 311.286V311.285ZM172.751 164.574C172.751 137.362 172.511 115.369 172.217 115.701C171.164 116.89 117.467 210.173 116.732 212.091C116.115 213.698 121.096 214.051 144.366 214.051H172.751V164.574ZM269.705 211.072C264.605 201.54 215.732 117.519 214.624 116.377C213.807 115.536 213.288 134.254 213.288 164.526V214.051H242.294C271.121 214.051 271.29 214.032 269.705 211.072V211.072Z" fill="#DDAB10"/>
</svg>
