<svg width="222" height="74" viewBox="0 0 222 74" fill="none" xmlns="http://www.w3.org/2000/svg">
<path d="M111.547 12.8201L119 25.6659L118.626 26.3384C118.42 26.7082 117.083 29.0184 115.655 31.4721C114.227 33.9257 112.917 36.1842 112.744 36.4909L112.429 37.0485L115.696 42.6731C117.493 45.7666 118.964 48.3357 118.964 48.3822C118.964 48.4931 104.271 73.81 104.098 73.9967C103.994 74.1094 102.371 71.3959 96.4826 61.2608L89 48.3816L92.2673 42.7708C94.0644 39.6849 95.5363 37.1099 95.5382 37.0485C95.5402 36.9872 94.0706 34.4069 92.2725 31.3145L89.0031 25.692L89.3301 25.1246C93.5435 17.8124 103.934 0.0189551 104.001 2.65436e-05C104.052 -0.0141557 107.447 5.75486 111.547 12.8201ZM100.176 12.7255C98.9665 14.8058 97.9769 16.5248 97.9769 16.5454C97.9769 16.566 98.987 16.5828 100.221 16.5828L102.466 16.5828L102.466 12.7165C102.466 10.59 102.446 8.87101 102.42 8.89657C102.395 8.92212 101.385 10.6451 100.176 12.7255ZM105.608 12.7908L105.608 16.5828L107.797 16.5828C109.001 16.5828 109.985 16.5489 109.985 16.5074C109.985 16.4208 105.692 8.99882 105.641 8.99882C105.623 8.99882 105.608 10.7052 105.608 12.7908ZM105.608 21.9363L105.608 24.1669L110.051 24.1669L114.493 24.1669L114.274 23.8044C114.154 23.605 113.839 23.0655 113.574 22.6054C113.31 22.1454 112.82 21.3047 112.487 20.7373L111.88 19.7057L108.744 19.7057L105.608 19.7057L105.608 21.9363ZM94.8605 21.8752C94.1672 23.0685 93.6001 24.0729 93.6001 24.1071C93.6001 24.1414 95.5823 24.1563 98.005 24.1403L102.41 24.1111L102.44 21.9084L102.471 19.7057L99.2958 19.7057L96.1209 19.7057L94.8605 21.8752ZM106.843 27.3606C106.843 27.3995 107.684 28.8804 108.712 30.6515C110.327 33.4353 110.599 33.845 110.715 33.6756C110.947 33.3391 114.362 27.4162 114.362 27.3513C114.362 27.3174 112.67 27.2897 110.603 27.2897C108.535 27.2897 106.843 27.3216 106.843 27.3606V27.3606ZM93.7907 27.6522C93.9077 27.8515 94.7525 29.307 95.6679 30.8865C96.5834 32.4661 97.3699 33.7584 97.4158 33.7584C97.4617 33.7584 98.2482 32.4661 99.1637 30.8865C100.079 29.307 100.924 27.8515 101.041 27.6522L101.254 27.2897L97.4158 27.2897L93.5779 27.2897L93.7907 27.6522ZM101.621 32.9219C100.339 35.1302 99.2904 36.9872 99.2921 37.0485C99.2938 37.1099 100.356 38.9792 101.652 41.2027L104.008 45.2453L106.287 41.3142C107.54 39.1521 108.614 37.3047 108.672 37.2089C108.753 37.0767 108.217 36.067 106.451 33.0265C105.171 30.822 104.099 28.9774 104.069 28.9273C104.039 28.8772 104.001 28.8522 103.984 28.8716C103.968 28.891 102.904 30.7137 101.621 32.9219V32.9219ZM110.064 41.0915C109.787 41.5669 108.927 43.0474 108.152 44.3816L106.742 46.8074L110.597 46.8074L114.452 46.8074L112.544 43.5173C111.494 41.7077 110.62 40.2271 110.601 40.2271C110.582 40.2271 110.34 40.6161 110.064 41.0915V41.0915ZM95.4785 43.4925L93.5972 46.7516L95.5065 46.7821C96.5566 46.7989 98.2753 46.7989 99.3258 46.7821L101.236 46.7516L99.3538 43.4934C98.3188 41.7013 97.4467 40.2347 97.4158 40.2342C97.3849 40.2339 96.5131 41.6999 95.4785 43.4925ZM105.608 52.1608L105.608 54.3914L108.741 54.3914L111.873 54.3914L113.023 52.4117C113.656 51.3229 114.247 50.3192 114.337 50.1812L114.5 49.9302L110.054 49.9302L105.608 49.9302L105.608 52.1608ZM93.6188 50.0255C93.6393 50.0779 94.2117 51.0809 94.8907 52.2545L96.1252 54.3883L99.2956 54.3898L102.466 54.3913L102.466 52.1607L102.466 49.9301L98.0237 49.9301C95.5804 49.9301 93.5982 49.973 93.6188 50.0254L93.6188 50.0255ZM105.608 61.3248C105.608 63.4207 105.627 65.1145 105.65 65.089C105.731 64.9974 109.894 57.8129 109.951 57.6652C109.999 57.5415 109.613 57.5142 107.809 57.5142L105.608 57.5142L105.608 61.3248ZM98.0926 57.7437C98.488 58.4778 102.277 64.949 102.363 65.0369C102.426 65.1017 102.466 63.66 102.466 61.3285L102.466 57.5142L100.218 57.5142C97.9829 57.5142 97.9698 57.5157 98.0926 57.7437V57.7437Z" fill="white"/>
<path d="M7.524 43.144C6.264 43.144 5.124 42.868 4.104 42.316C3.096 41.752 2.304 40.984 1.728 40.012C1.152 39.028 0.864 37.924 0.864 36.7C0.864 35.476 1.152 34.378 1.728 33.406C2.304 32.422 3.102 31.654 4.122 31.102C5.142 30.538 6.282 30.256 7.542 30.256C8.526 30.256 9.426 30.424 10.242 30.76C11.058 31.084 11.754 31.57 12.33 32.218L11.16 33.352C10.212 32.356 9.03 31.858 7.614 31.858C6.678 31.858 5.832 32.068 5.076 32.488C4.32 32.908 3.726 33.49 3.294 34.234C2.874 34.966 2.664 35.788 2.664 36.7C2.664 37.612 2.874 38.44 3.294 39.184C3.726 39.916 4.32 40.492 5.076 40.912C5.832 41.332 6.678 41.542 7.614 41.542C9.018 41.542 10.2 41.038 11.16 40.03L12.33 41.164C11.754 41.812 11.052 42.304 10.224 42.64C9.408 42.976 8.508 43.144 7.524 43.144ZM27.127 39.85H20.431L19.045 43H17.191L22.897 30.4H24.679L30.403 43H28.513L27.127 39.85ZM26.497 38.41L23.779 32.236L21.061 38.41H26.497ZM45.2066 43L42.4886 39.13C42.1526 39.154 41.8886 39.166 41.6966 39.166H38.5826V43H36.7826V30.4H41.6966C43.3286 30.4 44.6126 30.79 45.5486 31.57C46.4846 32.35 46.9526 33.424 46.9526 34.792C46.9526 35.764 46.7126 36.592 46.2326 37.276C45.7526 37.96 45.0686 38.458 44.1806 38.77L47.1686 43H45.2066ZM41.6426 37.636C42.7826 37.636 43.6526 37.39 44.2526 36.898C44.8526 36.406 45.1526 35.704 45.1526 34.792C45.1526 33.88 44.8526 33.184 44.2526 32.704C43.6526 32.212 42.7826 31.966 41.6426 31.966H38.5826V37.636H41.6426ZM54.3607 30.4H56.1607V41.434H62.9827V43H54.3607V30.4ZM75.0077 43.144C73.7357 43.144 72.5897 42.868 71.5697 42.316C70.5497 41.752 69.7457 40.978 69.1577 39.994C68.5817 39.01 68.2937 37.912 68.2937 36.7C68.2937 35.488 68.5817 34.39 69.1577 33.406C69.7457 32.422 70.5497 31.654 71.5697 31.102C72.5897 30.538 73.7357 30.256 75.0077 30.256C76.2677 30.256 77.4077 30.538 78.4277 31.102C79.4477 31.654 80.2457 32.422 80.8217 33.406C81.3977 34.378 81.6857 35.476 81.6857 36.7C81.6857 37.924 81.3977 39.028 80.8217 40.012C80.2457 40.984 79.4477 41.752 78.4277 42.316C77.4077 42.868 76.2677 43.144 75.0077 43.144ZM75.0077 41.542C75.9317 41.542 76.7597 41.332 77.4917 40.912C78.2357 40.492 78.8177 39.916 79.2377 39.184C79.6697 38.44 79.8857 37.612 79.8857 36.7C79.8857 35.788 79.6697 34.966 79.2377 34.234C78.8177 33.49 78.2357 32.908 77.4917 32.488C76.7597 32.068 75.9317 31.858 75.0077 31.858C74.0837 31.858 73.2437 32.068 72.4877 32.488C71.7437 32.908 71.1557 33.49 70.7237 34.234C70.3037 34.966 70.0937 35.788 70.0937 36.7C70.0937 37.612 70.3037 38.44 70.7237 39.184C71.1557 39.916 71.7437 40.492 72.4877 40.912C73.2437 41.332 74.0837 41.542 75.0077 41.542Z" fill="white"/>
<path d="M135.368 36.466C136.1 36.67 136.676 37.042 137.096 37.582C137.516 38.11 137.726 38.782 137.726 39.598C137.726 40.69 137.312 41.53 136.484 42.118C135.668 42.706 134.474 43 132.902 43H126.89V30.4H132.542C133.982 30.4 135.092 30.688 135.872 31.264C136.664 31.84 137.06 32.638 137.06 33.658C137.06 34.318 136.904 34.888 136.592 35.368C136.292 35.848 135.884 36.214 135.368 36.466ZM128.69 31.858V35.89H132.38C133.304 35.89 134.012 35.722 134.504 35.386C135.008 35.038 135.26 34.534 135.26 33.874C135.26 33.214 135.008 32.716 134.504 32.38C134.012 32.032 133.304 31.858 132.38 31.858H128.69ZM132.83 41.542C133.85 41.542 134.618 41.374 135.134 41.038C135.65 40.702 135.908 40.174 135.908 39.454C135.908 38.05 134.882 37.348 132.83 37.348H128.69V41.542H132.83ZM150.341 39.85H143.645L142.259 43H140.405L146.111 30.4H147.893L153.617 43H151.727L150.341 39.85ZM149.711 38.41L146.993 32.236L144.275 38.41H149.711ZM165.851 36.628H167.579V41.542C166.955 42.058 166.229 42.454 165.401 42.73C164.573 43.006 163.709 43.144 162.809 43.144C161.537 43.144 160.391 42.868 159.371 42.316C158.351 41.752 157.547 40.984 156.959 40.012C156.383 39.028 156.095 37.924 156.095 36.7C156.095 35.476 156.383 34.372 156.959 33.388C157.547 32.404 158.351 31.636 159.371 31.084C160.403 30.532 161.561 30.256 162.845 30.256C163.853 30.256 164.765 30.424 165.581 30.76C166.409 31.084 167.111 31.564 167.687 32.2L166.571 33.316C165.563 32.344 164.345 31.858 162.917 31.858C161.957 31.858 161.093 32.068 160.325 32.488C159.569 32.896 158.975 33.472 158.543 34.216C158.111 34.948 157.895 35.776 157.895 36.7C157.895 37.612 158.111 38.44 158.543 39.184C158.975 39.916 159.569 40.492 160.325 40.912C161.093 41.332 161.951 41.542 162.899 41.542C164.027 41.542 165.011 41.272 165.851 40.732V36.628ZM183.661 30.4V43H182.185L174.625 33.604V43H172.825V30.4H174.301L181.861 39.796V30.4H183.661ZM194.921 43.144C193.649 43.144 192.503 42.868 191.483 42.316C190.463 41.752 189.659 40.978 189.071 39.994C188.495 39.01 188.207 37.912 188.207 36.7C188.207 35.488 188.495 34.39 189.071 33.406C189.659 32.422 190.463 31.654 191.483 31.102C192.503 30.538 193.649 30.256 194.921 30.256C196.181 30.256 197.321 30.538 198.341 31.102C199.361 31.654 200.159 32.422 200.735 33.406C201.311 34.378 201.599 35.476 201.599 36.7C201.599 37.924 201.311 39.028 200.735 40.012C200.159 40.984 199.361 41.752 198.341 42.316C197.321 42.868 196.181 43.144 194.921 43.144ZM194.921 41.542C195.845 41.542 196.673 41.332 197.405 40.912C198.149 40.492 198.731 39.916 199.151 39.184C199.583 38.44 199.799 37.612 199.799 36.7C199.799 35.788 199.583 34.966 199.151 34.234C198.731 33.49 198.149 32.908 197.405 32.488C196.673 32.068 195.845 31.858 194.921 31.858C193.997 31.858 193.157 32.068 192.401 32.488C191.657 32.908 191.069 33.49 190.637 34.234C190.217 34.966 190.007 35.788 190.007 36.7C190.007 37.612 190.217 38.44 190.637 39.184C191.069 39.916 191.657 40.492 192.401 40.912C193.157 41.332 193.997 41.542 194.921 41.542ZM206.15 30.4H207.95V41.434H214.772V43H206.15V30.4ZM218.637 30.4H220.437V43H218.637V30.4Z" fill="white"/>
</svg>
